<?xml version="1.0" encoding="UTF-8" standalone="no"?>
<svg width="36px" height="36px" viewBox="0 0 36 36" version="1.1" xmlns="http://www.w3.org/2000/svg" xmlns:xlink="http://www.w3.org/1999/xlink">
    <!-- Generator: Sketch 39.1 (31720) - http://www.bohemiancoding.com/sketch -->
    <title>icon/liked-c</title>
    <desc>Created with Sketch.</desc>
    <defs></defs>
    <g id="Symbols" stroke="none" stroke-width="1" fill="none" fill-rule="evenodd">
        <g id="icon/liked-c">
            <circle id="Oval" fill="#548CFF" cx="18" cy="18" r="18"></circle>
            <path d="M22.3303644,14.4515102 C22.3694483,14.4487657 22.40894,14.4473684 22.4487854,14.4473684 C23.2990133,14.4473684 23.9882591,15.0835954 23.9882591,15.8684211 C23.9882591,16.3294812 23.7503873,16.7392571 23.3817474,16.9988839 C23.7462637,17.2087976 23.9882591,17.5787074 23.9882591,18 C23.9882591,18.5154404 23.6260191,18.9539665 23.1203452,19.1166636 C23.4985115,19.3239091 23.751417,19.7008944 23.751417,20.1315789 C23.751417,20.661462 23.3685927,21.11006 22.8406632,21.2612648 C23.1056392,21.4336132 23.2777328,21.7121002 23.2777328,22.0263158 C23.2777328,22.513953 22.8632532,22.9155397 22.3303644,22.9679022 L22.3303644,22.9736842 L15.4612329,22.9736842 C14.9384081,22.9736842 14.5145749,22.5508629 14.5145749,22.0286419 L14.5145749,15.1596521 C14.5145749,14.9682256 14.5894182,14.7944363 14.7117547,14.666448 C15.2461245,13.9778533 17.4692219,11.8996581 17.5789475,11.1315789 C17.6973685,10.3026316 18.0169485,9 18.543203,9 L18.7014537,9 C19.3976029,9 20.0206652,9.56363445 20.0612545,10.2562325 C20.0612545,10.2562325 20.4356276,13.0108455 19.014575,14.4473684 L22.3303644,14.4473684 L22.3303644,14.4515102 Z M10,16.3397791 C10,15.8178467 10.423315,15.3947368 10.9457348,15.3947368 L12.3700547,15.3947368 C12.8923696,15.3947368 13.3157895,15.8175582 13.3157895,16.3397791 L13.3157895,22.9760103 C13.3157895,23.4979428 12.8924745,23.9210526 12.3700547,23.9210526 L10.9457348,23.9210526 C10.4234199,23.9210526 10,23.4982313 10,22.9760103 L10,16.3397791 Z" id="Combined-Shape" fill="#FFFFFF"></path>
        </g>
    </g>
</svg>