<?xml version="1.0" encoding="UTF-8" standalone="no"?>
<svg width="36px" height="36px" viewBox="0 0 36 36" version="1.1" xmlns="http://www.w3.org/2000/svg" xmlns:xlink="http://www.w3.org/1999/xlink">
    <!-- Generator: Sketch 39.1 (31720) - http://www.bohemiancoding.com/sketch -->
    <title>icon/loved-c</title>
    <desc>Created with Sketch.</desc>
    <defs></defs>
    <g id="Symbols" stroke="none" stroke-width="1" fill="none" fill-rule="evenodd">
        <g id="icon/loved-c">
            <circle id="Oval" fill="#F55065" cx="18" cy="18" r="18"></circle>
            <path d="M7.41788627,15.8491239 C7.31671917,15.4246681 7.26315789,14.9817469 7.26315789,14.5263158 C7.26315789,11.387013 9.80806563,8.84210526 12.9473684,8.84210526 C15.1471145,8.84210526 17.0550146,10.0916469 18,11.9196619 C18.9449854,10.0916469 20.8528855,8.84210526 23.0526316,8.84210526 C26.1919344,8.84210526 28.7368421,11.387013 28.7368421,14.5263158 C28.7368421,14.9354765 28.6936113,15.3345401 28.6114681,15.7191882 C28.6048714,15.7935519 28.5940689,15.8696004 28.5789474,15.9473684 C27.4736842,21.631579 18.1578947,28.1052632 18.1578947,28.1052632 C18.1578947,28.1052632 7.73684211,21.3157895 7.42105263,15.9473684 C7.4191074,15.9142996 7.41805579,15.8815524 7.41788627,15.8491239 L7.41788627,15.8491239 Z" id="Love-path" fill="#FFFFFF"></path>
        </g>
    </g>
</svg>