<?xml version="1.0" encoding="UTF-8" standalone="no"?>
<svg width="36px" height="36px" viewBox="0 0 36 36" version="1.1" xmlns="http://www.w3.org/2000/svg" xmlns:xlink="http://www.w3.org/1999/xlink">
    <!-- Generator: Sketch 39.1 (31720) - http://www.bohemiancoding.com/sketch -->
    <title>icon/sad-c</title>
    <desc>Created with Sketch.</desc>
    <defs></defs>
    <g id="Page-1" stroke="none" stroke-width="1" fill="none" fill-rule="evenodd">
        <g id="sad">
            <circle id="Oval" fill="#FFDA69" cx="18" cy="18" r="18"></circle>
            <path d="M24.7894737,15.4736842 C26.9695451,15.4736842 28.7368421,13.7063872 28.7368421,11.5263158 C28.7368421,9.34624441 26.9695451,7.57894737 24.7894737,7.57894737 C22.6094023,7.57894737 20.8421053,9.34624441 20.8421053,11.5263158 C20.8421053,13.7063872 22.6094023,15.4736842 24.7894737,15.4736842 L24.7894737,15.4736842 Z M11.2105263,15.4736842 C13.3905977,15.4736842 15.1578947,13.7063872 15.1578947,11.5263158 C15.1578947,9.34624441 13.3905977,7.57894737 11.2105263,7.57894737 C9.03045494,7.57894737 7.26315789,9.34624441 7.26315789,11.5263158 C7.26315789,13.7063872 9.03045494,15.4736842 11.2105263,15.4736842 L11.2105263,15.4736842 Z" id="Combined-Shape" fill="#FFFFFF"></path>
            <path d="M11.3684211,13.5789474 C12.4148553,13.5789474 13.2631579,12.7306448 13.2631579,11.6842105 C13.2631579,10.6377763 12.4148553,9.78947368 11.3684211,9.78947368 C10.3219868,9.78947368 9.47368421,10.6377763 9.47368421,11.6842105 C9.47368421,12.7306448 10.3219868,13.5789474 11.3684211,13.5789474 L11.3684211,13.5789474 Z M24.9473684,13.5789474 C25.9938027,13.5789474 26.8421053,12.7306448 26.8421053,11.6842105 C26.8421053,10.6377763 25.9938027,9.78947368 24.9473684,9.78947368 C23.9009342,9.78947368 23.0526316,10.6377763 23.0526316,11.6842105 C23.0526316,12.7306448 23.9009342,13.5789474 24.9473684,13.5789474 L24.9473684,13.5789474 Z" id="Combined-Shape" fill="#7C7C7C"></path>
            <path d="M27,22.0806452 C27,23.4168179 25.8807119,24.5 24.5,24.5 C23.1192881,24.5 22,23.4168179 22,22.0806452 C22,21.6890455 22.0961394,21.3191761 22.2668229,20.9919355 L24.5,17 L26.7331771,20.9919355 C26.9038606,21.3191761 27,21.6890455 27,22.0806452 Z" id="tear" fill="#548CFF"></path>
            <path d="M13,29.6862871 C13,29.6862871 14.4746552,27 18.5,27 C22.5253448,27 24,29.6862871 24,29.6862871" id="Line" stroke="#979797" stroke-linecap="square"></path>
        </g>
    </g>
</svg>